<svg id="svg" version="1.1" xmlns="http://www.w3.org/2000/svg" xmlns:xlink="http://www.w3.org/1999/xlink" width="400" height="400" viewBox="0, 0, 400,400"><g id="svgg"><path id="path0" d="M75.279 50.804 C 62.869 53.854,53.332 63.787,50.736 76.366 C 49.558 82.075,49.604 319.615,50.784 324.538 C 53.664 336.551,63.003 346.039,74.922 349.063 L 78.616 350.000 199.952 349.997 C 319.817 349.995,321.328 349.985,324.538 349.216 C 336.727 346.294,346.329 336.673,349.224 324.483 C 350.379 319.620,350.268 78.317,349.109 74.414 C 345.600 62.596,336.232 53.588,324.538 50.784 C 319.540 49.586,80.158 49.605,75.279 50.804 M200.197 172.266 C 200.412 172.266,216.407 156.446,235.742 137.110 L 270.896 101.954 284.667 115.722 L 298.439 129.489 263.282 164.648 C 243.946 183.985,228.125 199.982,228.125 200.197 C 228.125 200.412,243.945 216.407,263.281 235.742 L 298.436 270.896 284.669 284.667 L 270.901 298.439 235.548 263.087 L 200.194 227.734 164.844 263.085 L 129.495 298.436 115.723 284.669 L 101.952 270.901 137.109 235.743 C 156.445 216.406,172.266 200.409,172.266 200.194 C 172.266 199.979,156.446 183.984,137.110 164.649 L 101.954 129.495 115.722 115.723 L 129.489 101.952 164.648 137.109 C 183.985 156.445,199.982 172.266,200.197 172.266 " stroke="none" fill="#156287" fill-rule="evenodd"></path><path id="path1" d="M75.279 50.804 C 62.869 53.854,53.332 63.787,50.736 76.366 C 49.558 82.075,49.604 319.615,50.784 324.538 C 53.664 336.551,63.003 346.039,74.922 349.063 L 78.616 350.000 199.952 349.997 C 319.817 349.995,321.328 349.985,324.538 349.216 C 336.727 346.294,346.329 336.673,349.224 324.483 C 350.379 319.620,350.268 78.317,349.109 74.414 C 345.600 62.596,336.232 53.588,324.538 50.784 C 319.540 49.586,80.158 49.605,75.279 50.804 M200.197 172.266 C 200.412 172.266,216.407 156.446,235.742 137.110 L 270.896 101.954 284.667 115.722 L 298.439 129.489 263.282 164.648 C 243.946 183.985,228.125 199.982,228.125 200.197 C 228.125 200.412,243.945 216.407,263.281 235.742 L 298.436 270.896 284.669 284.667 L 270.901 298.439 235.548 263.087 L 200.194 227.734 164.844 263.085 L 129.495 298.436 115.723 284.669 L 101.952 270.901 137.109 235.743 C 156.445 216.406,172.266 200.409,172.266 200.194 C 172.266 199.979,156.446 183.984,137.110 164.649 L 101.954 129.495 115.722 115.723 L 129.489 101.952 164.648 137.109 C 183.985 156.445,199.982 172.266,200.197 172.266 " stroke="none" fill="#DC143C" fill-rule="evenodd"></path></g></svg>